<svg width="118" height="28" viewBox="0 0 118 28" fill="none" xmlns="http://www.w3.org/2000/svg">
  <rect width="118" height="28" rx="14" fill="url(#paint0_linear_ae)"/>
  <path d="M28.867 19.9L32.227 8.2H35.779L39.139 19.9H36.395L35.717 17.578H32.227L31.549 19.9H28.867ZM33.051 15.372H34.893L33.972 12.058L33.051 15.372Z" fill="white"/>
  <path d="M41.0219 19.9V8.2H47.1899V10.436H43.4519V12.842H46.8219V15.078H43.4519V17.664H47.3299V19.9H41.0219Z" fill="white"/>
  <path d="M49.2371 19.9V8.2H55.4051V10.436H51.6671V12.842H55.0371V15.078H51.6671V17.664H55.5451V19.9H49.2371Z" fill="white"/>
  <path d="M61.3006 20.084C59.9326 20.084 58.8106 19.666 57.9346 18.83C57.0746 17.994 56.6446 16.872 56.6446 15.464V12.62C56.6446 11.212 57.0746 10.09 57.9346 9.254C58.8106 8.402 59.9326 7.976 61.3006 7.976C62.6686 7.976 63.7906 8.402 64.6666 9.254C65.5266 10.09 65.9566 11.212 65.9566 12.62V15.464C65.9566 16.872 65.5266 17.994 64.6666 18.83C63.7906 19.666 62.6686 20.084 61.3006 20.084ZM61.3006 17.68C62.1886 17.68 62.6326 16.992 62.6326 15.616V12.464C62.6326 11.072 62.1886 10.376 61.3006 10.376C60.4126 10.376 59.9686 11.072 59.9686 12.464V15.616C59.9686 16.992 60.4126 17.68 61.3006 17.68Z" fill="white"/>
  <path d="M68.5316 19.9V8.2H72.1556C73.1396 8.2 73.9636 8.45 74.6276 8.95C75.2916 9.434 75.7236 10.126 75.9236 11.026L76.0596 11.518C76.2996 12.486 76.4196 13.494 76.4196 14.542C76.4196 15.59 76.2996 16.598 76.0596 17.566L75.9236 18.058C75.7236 18.958 75.2916 19.65 74.6276 20.134C73.9636 20.634 73.1396 20.884 72.1556 20.884H68.5316V19.9ZM71.8676 17.726C72.2116 17.726 72.4676 17.582 72.6356 17.294C72.8196 16.99 72.9476 16.494 73.0196 15.806L73.1396 14.542C73.1876 13.958 73.2116 13.366 73.2116 12.766C73.2116 12.166 73.1876 11.574 73.1396 10.99L73.0196 9.726C72.9476 9.038 72.8196 8.542 72.6356 8.238C72.4676 7.95 72.2116 7.806 71.8676 7.806H71.4916V17.726H71.8676Z" fill="white"/>
  <defs>
    <linearGradient id="paint0_linear_ae" x1="0" y1="14" x2="118" y2="14" gradientUnits="userSpaceOnUse">
      <stop stop-color="#0F9F6A"/>
      <stop offset="1" stop-color="#1AFF9C"/>
    </linearGradient>
  </defs>
</svg>
